<svg xmlns="http://www.w3.org/2000/svg" viewBox="0 0 700 320" font-family="system-ui, -apple-system, sans-serif">
<rect width="700" height="320" fill="#fafafa" rx="8"/>
<text x="65" y="20" font-size="13" font-weight="600" fill="#1a1a1a">Wzrost bazy aktów prawnych</text>
<line x1="65" y1="270.0" x2="635" y2="270.0" stroke="#e5e5e5" stroke-width="1"/>
<line x1="65" y1="222.0" x2="635" y2="222.0" stroke="#e5e5e5" stroke-width="1"/>
<line x1="65" y1="174.0" x2="635" y2="174.0" stroke="#e5e5e5" stroke-width="1"/>
<line x1="65" y1="126.0" x2="635" y2="126.0" stroke="#e5e5e5" stroke-width="1"/>
<line x1="65" y1="78.0" x2="635" y2="78.0" stroke="#e5e5e5" stroke-width="1"/>
<line x1="65" y1="30.0" x2="635" y2="30.0" stroke="#e5e5e5" stroke-width="1"/>
<text x="57" y="274.0" text-anchor="end" font-size="11" fill="#2563eb">4,453</text>
<text x="57" y="226.0" text-anchor="end" font-size="11" fill="#2563eb">6,487</text>
<text x="57" y="178.0" text-anchor="end" font-size="11" fill="#2563eb">8,522</text>
<text x="57" y="130.0" text-anchor="end" font-size="11" fill="#2563eb">10,556</text>
<text x="57" y="82.0" text-anchor="end" font-size="11" fill="#2563eb">12,591</text>
<text x="57" y="34.0" text-anchor="end" font-size="11" fill="#2563eb">14,625</text>
<text x="643" y="274.4" text-anchor="start" font-size="11" fill="#dc2626">2</text>
<text x="643" y="226.6" text-anchor="start" font-size="11" fill="#dc2626">61</text>
<text x="643" y="178.8" text-anchor="start" font-size="11" fill="#dc2626">120</text>
<text x="643" y="130.2" text-anchor="start" font-size="11" fill="#dc2626">180</text>
<text x="643" y="82.4" text-anchor="start" font-size="11" fill="#dc2626">239</text>
<text x="643" y="34.6" text-anchor="start" font-size="11" fill="#dc2626">298</text>
<polygon points="65.0,270.0 65.0,49.2 635.0,241.2 635.0,270.0" fill="#2563eb" fill-opacity="0.08"/>
<polyline points="65.0,49.2 635.0,241.2" fill="none" stroke="#2563eb" stroke-width="2.5" stroke-linejoin="round"/>
<polyline points="65.0,49.2 635.0,241.2" fill="none" stroke="#dc2626" stroke-width="1.5" stroke-dasharray="4,3" stroke-linejoin="round"/>
<circle cx="65.0" cy="49.2" r="2" fill="#2563eb"/>
<circle cx="635.0" cy="241.2" r="4" fill="#2563eb"/>
<circle cx="635.0" cy="241.2" r="3" fill="#dc2626"/>
<text x="630.0" y="229.2" text-anchor="end" font-size="12" font-weight="600" fill="#2563eb">5,674</text>
<text x="630.0" y="241.2" text-anchor="end" font-size="10" fill="#dc2626">(-8,138/tydz.)</text>
<text x="630.0" y="257.2" text-anchor="end" font-size="11" fill="#dc2626">38</text>
<text x="65.0" y="288" text-anchor="middle" font-size="10" fill="#888">18.05</text>
<text x="635.0" y="288" text-anchor="middle" font-size="10" fill="#888">25.05</text>
<circle cx="65" cy="308" r="4" fill="#2563eb"/><text x="73" y="312" font-size="10" fill="#666">Opublikowane</text>
<line x1="165" y1="308" x2="181" y2="308" stroke="#dc2626" stroke-width="1.5" stroke-dasharray="4,3"/><text x="185" y="312" font-size="10" fill="#666">Odrzucone</text>
</svg>